<svg width="24" height="24" viewBox="0 0 24 24" fill="none" xmlns="http://www.w3.org/2000/svg">
<path d="M12 22.75C6.07 22.75 1.25 17.93 1.25 12C1.25 6.07 6.07 1.25 12 1.25C17.93 1.25 22.75 6.07 22.75 12C22.75 17.93 17.93 22.75 12 22.75ZM12 2.75C6.9 2.75 2.75 6.9 2.75 12C2.75 17.1 6.9 21.25 12 21.25C17.1 21.25 21.25 17.1 21.25 12C21.25 6.9 17.1 2.75 12 2.75Z" fill="#112E95"/>
<path fill-rule="evenodd" clip-rule="evenodd" d="M11.25 16C11.25 16.41 11.59 16.75 12 16.75C12.41 16.75 12.75 16.41 12.75 16V12.75H16C16.41 12.75 16.75 12.41 16.75 12C16.75 11.59 16.41 11.25 16 11.25H12.75V8C12.75 7.59 12.41 7.25 12 7.25C11.59 7.25 11.25 7.59 11.25 8V11.25H8C7.59 11.25 7.25 11.59 7.25 12C7.25 12.41 7.59 12.75 8 12.75H11.25V16Z" fill="#112E95"/>
</svg>
