<svg width="418" height="1008" viewBox="0 0 418 1008" fill="none" xmlns="http://www.w3.org/2000/svg">
<path d="M39 610.501C90.5 620.501 81.293 608.373 104.454 578.865C121.135 557.612 148.524 548.959 165 555.997" stroke="#18191D" stroke-opacity="0.4" stroke-dasharray="5 5"/>
<path d="M415.499 402.501C397.379 458.686 355.43 459.02 334.204 441.976C319.787 430.398 326.186 417.186 331.609 413.758C337.264 410.184 358.657 405.207 355.488 449.845C353.733 474.558 325.257 502.344 302.743 508.853" stroke="#18191D" stroke-opacity="0.4" stroke-dasharray="5 5"/>
<path d="M168.742 933.364C112.483 915.474 87.8415 949.424 89.384 976.602C90.4317 995.063 104.904 997.53 110.844 995.107C117.038 992.581 133.518 978.059 95.3433 954.707C74.2089 941.779 57.3767 943.956 38.9996 958.5" stroke="#18191D" stroke-opacity="0.4" stroke-dasharray="5 5"/>
<path d="M271 116.28C295.759 105.772 327.8 112.527 327.8 160.188C327.8 198.4 347.716 211.219 374.93 213.649C394.532 215.399 410.724 228.76 413 242" stroke="#18191D" stroke-opacity="0.4" stroke-dasharray="5 5"/>
<path d="M159.71 164.826C100.683 139.474 88.458 69.2868 107.937 49.9634C121.167 36.8381 134.923 44.9616 138.27 50.8726C141.76 57.0365 145.825 79.2862 98.2682 70.4939C71.9395 65.6262 43.8952 33.3607 38.2578 9.78637" stroke="#18191D" stroke-opacity="0.4" stroke-dasharray="5 5"/>
<path d="M309.501 960.5C361.001 970.5 366.054 914.519 356.454 878.256C340.501 818 400.524 848.351 417 855.388" stroke="#18191D" stroke-opacity="0.4" stroke-dasharray="5 5"/>
</svg>
