<svg width="24" height="24" viewBox="0 0 32 32" fill="none" xmlns="http://www.w3.org/2000/svg">
<path d="M23.4127 23.9603H8.58602C3.27935 23.9603 1.66602 22.347 1.66602 17.0403V8.58699C1.66602 3.28033 3.27935 1.66699 8.58602 1.66699H23.3993C28.706 1.66699 30.3193 3.28033 30.3193 8.58699V17.027C30.3327 22.347 28.7193 23.9603 23.4127 23.9603ZM8.58602 3.66699C4.39935 3.66699 3.66602 4.40033 3.66602 8.58699V17.027C3.66602 21.2137 4.39935 21.947 8.58602 21.947H23.3993C27.586 21.947 28.3193 21.2137 28.3193 17.027V8.58699C28.3193 4.40033 27.586 3.66699 23.3993 3.66699H8.58602Z" fill="white"/>
<path d="M16 30.3333C15.4533 30.3333 15 29.88 15 29.3333V22.96C15 22.4133 15.4533 21.96 16 21.96C16.5467 21.96 17 22.4133 17 22.96V29.3333C17 29.88 16.5467 30.3333 16 30.3333Z" fill="white"/>
<path d="M29.3327 18.333H2.66602C2.11935 18.333 1.66602 17.8797 1.66602 17.333C1.66602 16.7863 2.11935 16.333 2.66602 16.333H29.3327C29.8794 16.333 30.3327 16.7863 30.3327 17.333C30.3327 17.8797 29.8794 18.333 29.3327 18.333Z" fill="white"/>
<path d="M22 30.333H10C9.45333 30.333 9 29.8797 9 29.333C9 28.7863 9.45333 28.333 10 28.333H22C22.5467 28.333 23 28.7863 23 29.333C23 29.8797 22.5467 30.333 22 30.333Z" fill="white"/>
</svg>
