<svg width="24" height="24" viewBox="0 0 32 32" fill="none" xmlns="http://www.w3.org/2000/svg">
<path d="M16.0004 17.7338C15.8271 17.7338 15.6538 17.6938 15.4938 17.6005L3.72045 10.7872C3.24045 10.5072 3.08043 9.89381 3.36043 9.41381C3.64043 8.93381 4.24043 8.77379 4.73376 9.05379L16.0004 15.5738L27.2004 9.09383C27.6804 8.81383 28.2938 8.98719 28.5738 9.45385C28.8538 9.93385 28.6804 10.5471 28.2138 10.8271L16.5205 17.6005C16.3471 17.6805 16.1738 17.7338 16.0004 17.7338Z" fill="white"/>
<path d="M16 29.8131C15.4533 29.8131 15 29.3597 15 28.8131V16.7197C15 16.1731 15.4533 15.7197 16 15.7197C16.5467 15.7197 17 16.1731 17 16.7197V28.8131C17 29.3597 16.5467 29.8131 16 29.8131Z" fill="white"/>
<path d="M16.0008 30.3336C14.8275 30.3336 13.6675 30.0803 12.7475 29.5736L5.62748 25.6137C3.69415 24.547 2.1875 21.9737 2.1875 19.7603V12.227C2.1875 10.0136 3.69415 7.45369 5.62748 6.37369L12.7475 2.42699C14.5741 1.41366 17.4275 1.41366 19.2541 2.42699L26.3741 6.38695C28.3075 7.45362 29.8141 10.027 29.8141 12.2403V19.7737C29.8141 21.987 28.3075 24.5469 26.3741 25.6269L19.2541 29.5736C18.3342 30.0803 17.1741 30.3336 16.0008 30.3336ZM16.0008 3.66698C15.1608 3.66698 14.3342 3.84032 13.7208 4.17366L6.60083 8.13362C5.32083 8.85362 4.1875 10.7603 4.1875 12.2403V19.7737C4.1875 21.2403 5.32083 23.1603 6.60083 23.8803L13.7208 27.8403C14.9342 28.5203 17.0675 28.5203 18.2808 27.8403L25.4008 23.8803C26.6808 23.1603 27.8141 21.2537 27.8141 19.7737V12.2403C27.8141 10.7736 26.6808 8.85362 25.4008 8.13362L18.2808 4.17366C17.6675 3.84032 16.8408 3.66698 16.0008 3.66698Z" fill="white"/>
<path d="M22.6676 18.6537C22.1209 18.6537 21.6676 18.2004 21.6676 17.6537V13.3604L9.50756 6.34708C9.02756 6.06708 8.86754 5.45372 9.14754 4.98705C9.42754 4.50705 10.0276 4.34703 10.5076 4.62703L23.1609 11.9338C23.4676 12.1071 23.6676 12.4404 23.6676 12.8004V17.6804C23.6676 18.2004 23.2142 18.6537 22.6676 18.6537Z" fill="white"/>
</svg>
