<svg width="24" height="24" viewBox="0 0 32 32" fill="none" xmlns="http://www.w3.org/2000/svg">
<path d="M15.004 26.5926L14.2616 26.4865L15.004 26.5926ZM15.7465 26.6987C15.8172 26.204 15.7955 25.7351 15.5376 25.2736C15.3084 24.8632 14.9288 24.5341 14.5161 24.2065C13.6558 23.5235 12.266 22.563 10.0162 20.459L8.99164 21.5546C11.3004 23.7136 12.7758 24.7401 13.5835 25.3813C14.0049 25.7158 14.1599 25.8831 14.2281 26.0051C14.2676 26.0759 14.306 26.1754 14.2616 26.4865L15.7465 26.6987ZM14.2616 26.4865C14.2627 26.4785 14.258 26.5061 14.2354 26.5992C14.2158 26.6796 14.1893 26.7838 14.1571 26.9084C14.0936 27.1541 14.0099 27.473 13.928 27.8003C13.8461 28.1276 13.7632 28.474 13.7004 28.7809C13.6419 29.0669 13.5863 29.3844 13.5863 29.6216H15.0863C15.0863 29.556 15.1094 29.3777 15.17 29.0816C15.2263 28.8065 15.303 28.4847 15.3831 28.1645C15.4632 27.8444 15.5441 27.5366 15.6094 27.2834C15.6667 27.0616 15.7292 26.82 15.7465 26.6987L14.2616 26.4865ZM13.5863 29.6216C13.5863 29.9024 13.7167 30.1138 13.841 30.2447C13.9581 30.368 14.0919 30.446 14.1941 30.4956C14.3997 30.5954 14.6434 30.658 14.8692 30.701C15.3346 30.7895 15.9232 30.8303 16.4889 30.8312C17.0544 30.8322 17.6438 30.7936 18.1104 30.7054C18.3368 30.6626 18.5821 30.5996 18.7893 30.4979C18.9292 30.4293 19.3941 30.1764 19.3941 29.6216H17.8941C17.8941 29.2219 18.2244 29.1042 18.1287 29.1512C18.1004 29.1651 18.0092 29.1979 17.8317 29.2315C17.4905 29.296 17.003 29.3321 16.4915 29.3312C15.9803 29.3304 15.4919 29.2926 15.1496 29.2274C14.9716 29.1936 14.8787 29.1606 14.8488 29.146C14.8332 29.1385 14.8745 29.1548 14.9285 29.2116C14.9897 29.276 15.0863 29.4164 15.0863 29.6216H13.5863ZM18.5556 26.4623C18.4887 26.0833 18.6649 25.574 19.5243 24.7633C20.3617 23.9734 21.6483 23.0823 23.3319 21.9486L22.4941 20.7043C20.8388 21.8189 19.4398 22.781 18.495 23.6721C17.5724 24.5425 16.87 25.542 17.0784 26.723L18.5556 26.4623ZM17.0961 26.7997C17.3002 27.5099 17.5192 28.1518 17.6659 28.6245C17.8265 29.1425 17.8941 29.4422 17.8941 29.6216H19.3941C19.3941 29.1805 19.2503 28.6696 19.0985 28.1801C18.9327 27.6454 18.7382 27.083 18.5378 26.3855L17.0961 26.7997ZM15.004 27.3426H17.817V25.8426H15.004V27.3426Z" fill="white"/>
<path d="M14.9596 21.3041C13.4416 18.7074 13.274 17.171 13.9794 14.2205L18.2119 15.4647C17.6841 16.5326 18.8643 18.9508 14.9596 21.3041Z" stroke="white" stroke-width="1.5"/>
<path d="M28.1232 4.5015C26.8235 8.80627 25.5143 8.90927 22.8166 10.6642L20.6192 7.00507C23.8619 5.10456 24.1372 4.5015 28.1232 4.5015Z" stroke="white" stroke-width="1.5"/>
<path d="M2.70083 5.51266C3.46441 8.33634 3.32857 9.48846 6.0017 11.7015C7.10802 9.85759 9.35667 9.85874 10.2444 11.7017C13.4068 7.03603 9.40228 6.79508 9.40228 6.79508C6.77075 5.51266 5.22036 5.58259 2.70083 5.51266Z" stroke="white" stroke-width="1.5"/>
<path d="M10.0093 12.7873C9.98688 12.6396 9.95832 12.4851 9.92184 12.3291C9.82839 11.9295 9.66917 11.4587 9.37945 11.0724C9.07131 10.6616 8.59535 10.3281 7.94162 10.3281C7.2865 10.3281 6.81125 10.6631 6.50602 11.0779C6.22005 11.4665 6.06716 11.9393 5.97936 12.339C5.94587 12.4915 5.91992 12.6425 5.89982 12.7871C5.74455 12.729 5.57822 12.6727 5.40602 12.6232C4.99749 12.5058 4.49898 12.41 4.01549 12.4599C3.51065 12.5119 2.95975 12.7348 2.62037 13.3028C2.28215 13.8689 2.34316 14.4517 2.5508 14.9183C2.74577 15.3564 3.0793 15.7263 3.38182 16.0046C3.49537 16.1091 3.61141 16.2068 3.72494 16.2967C3.61138 16.3866 3.49531 16.4844 3.38172 16.5889C3.07921 16.8674 2.74571 17.2373 2.55078 17.6755C2.34318 18.1421 2.28214 18.7249 2.62037 19.291C2.94915 19.8412 3.47734 20.0823 3.96913 20.1643C4.44515 20.2436 4.94065 20.1867 5.35163 20.1012C5.54426 20.0611 5.72965 20.0123 5.90054 19.9611C5.92116 20.0978 5.94788 20.241 5.9825 20.3856C6.07252 20.7616 6.23013 21.2095 6.52498 21.5772C6.84112 21.9714 7.3136 22.2657 7.94162 22.2657C8.59387 22.2657 9.06971 21.9345 9.37846 21.5247C9.66864 21.1396 9.8281 20.6702 9.92167 20.2719C9.95822 20.1163 9.98683 19.9622 10.0092 19.815C10.1628 19.8725 10.3273 19.9283 10.4977 19.9772C10.902 20.0932 11.3966 20.1874 11.8775 20.1356C12.381 20.0813 12.9257 19.8554 13.2629 19.291C13.5901 18.7433 13.5563 18.1762 13.3744 17.7085C13.2031 17.2679 12.8964 16.8938 12.6152 16.6115C12.5024 16.4982 12.3866 16.3928 12.2738 16.2967C12.3866 16.2006 12.5023 16.0952 12.6151 15.982C12.8963 15.6998 13.203 15.3258 13.3744 14.8853C13.5564 14.4175 13.5901 13.8505 13.2629 13.3028C12.925 12.7374 12.3791 12.5125 11.8749 12.46C11.3936 12.4098 10.8989 12.5062 10.4948 12.6239C10.3254 12.6733 10.1619 12.7294 10.0093 12.7873Z" stroke="white" stroke-width="1.5"/>
<path d="M9.02656 16.2984C9.02656 16.9335 8.51169 17.4484 7.87656 17.4484C7.24143 17.4484 6.72656 16.9335 6.72656 16.2984C6.72656 15.6633 7.24143 15.1484 7.87656 15.1484C8.51169 15.1484 9.02656 15.6633 9.02656 16.2984Z" stroke="white" stroke-width="1.5"/>
<path d="M26.9836 12.763C26.9803 12.6261 26.9725 12.483 26.958 12.3378C26.9186 11.9409 26.8246 11.4656 26.5925 11.0558C26.3455 10.6195 25.9241 10.2367 25.286 10.1583C24.6465 10.0797 24.1398 10.35 23.7898 10.717C23.4623 11.0604 23.2541 11.5005 23.1185 11.876C23.0702 12.0099 23.0283 12.1435 22.9922 12.2724C22.8569 12.2024 22.7122 12.1329 22.5616 12.0687C22.1821 11.9069 21.7113 11.7546 21.2354 11.7453C20.7378 11.7356 20.1715 11.8867 19.7674 12.4002C19.3648 12.9118 19.3499 13.4875 19.4921 13.966C19.6254 14.4147 19.9017 14.8128 20.1585 15.1174C20.2487 15.2245 20.3417 15.3261 20.4338 15.4208C20.3201 15.4903 20.2036 15.5663 20.0885 15.6482C19.7611 15.8811 19.3905 16.1997 19.1451 16.602C18.8836 17.0309 18.7489 17.5919 19.0061 18.1846L19.6955 17.882L19.0061 18.1846C19.2561 18.7606 19.7404 19.0587 20.2079 19.197C20.6599 19.3308 21.1472 19.3345 21.5549 19.3007C21.7364 19.2856 21.9125 19.2622 22.0766 19.2349C22.0796 19.3617 22.0872 19.4944 22.1013 19.6292C22.1405 20.0032 22.2359 20.4564 22.4755 20.849C22.7327 21.2705 23.1558 21.6145 23.7684 21.6898C24.405 21.768 24.9117 21.5015 25.2644 21.1399C25.5955 20.8004 25.8097 20.3643 25.9507 19.9909C26.0023 19.8542 26.047 19.7179 26.0856 19.5865C26.2194 19.6558 26.3626 19.7246 26.5117 19.7881C26.8872 19.948 27.3545 20.0985 27.8283 20.1055C28.3249 20.1129 28.8855 19.958 29.2869 19.4478C29.6763 18.9531 29.7158 18.3963 29.5987 17.9198C29.4886 17.4713 29.2389 17.0723 29.0032 16.7663C28.9141 16.6506 28.8216 16.5413 28.7303 16.4402C28.8448 16.3645 28.9626 16.2812 29.0788 16.1908C29.3863 15.9516 29.7315 15.6257 29.9543 15.2182C30.191 14.7852 30.297 14.2366 30.0482 13.6635C29.7912 13.0713 29.2872 12.7867 28.8035 12.6753C28.3423 12.5691 27.8506 12.6039 27.4455 12.6696C27.2858 12.6955 27.1303 12.7279 26.9836 12.763Z" stroke="white" stroke-width="1.5"/>
<path d="M25.6825 15.9867C25.677 16.6274 25.1536 17.1441 24.5169 17.1441C23.8801 17.1441 23.3656 16.6274 23.3711 15.9867C23.3766 15.3459 23.9 14.8293 24.5368 14.8293C25.1735 14.8293 25.688 15.3459 25.6825 15.9867Z" stroke="white" stroke-width="1.5"/>
<path d="M17.3374 4.74655C17.265 4.55407 17.1795 4.34955 17.0798 4.14575C16.8765 3.73029 16.5869 3.26056 16.1823 2.91469C15.7542 2.54881 15.1721 2.30673 14.4833 2.45515C13.7931 2.60387 13.374 3.06328 13.1516 3.57338C12.9421 4.054 12.8937 4.59848 12.8986 5.0568C12.901 5.27791 12.916 5.49398 12.9374 5.69448C12.7166 5.65892 12.4759 5.62869 12.2283 5.61199C11.7502 5.57974 11.1868 5.59337 10.6802 5.75869C10.1528 5.93079 9.62932 6.29212 9.41103 6.96401C9.19364 7.63314 9.39667 8.22984 9.73141 8.67766C10.0476 9.10061 10.4984 9.42283 10.9006 9.65656C11.0932 9.76847 11.2877 9.8675 11.472 9.95344C11.3429 10.107 11.2104 10.2766 11.0853 10.457C10.824 10.8338 10.5576 11.3107 10.4574 11.8234C10.3514 12.3662 10.4299 12.9898 10.921 13.5063C11.3997 14.0098 12.0147 14.1464 12.5624 14.1207C13.0937 14.0957 13.6164 13.9192 14.0456 13.7283C14.2862 13.6212 14.5126 13.5027 14.7136 13.3877C14.7801 13.5659 14.8594 13.7551 14.9529 13.9436C15.1459 14.333 15.4271 14.7768 15.8314 15.1007C16.2625 15.4459 16.8316 15.6485 17.4952 15.5055C18.1826 15.3574 18.6035 14.9016 18.831 14.3958C19.046 13.9177 19.1022 13.3751 19.104 12.9171C19.1049 12.6923 19.0926 12.4727 19.0736 12.2694C19.2918 12.3047 19.5297 12.3347 19.7746 12.3511C20.2475 12.3828 20.806 12.3684 21.3091 12.2016C21.8342 12.0276 22.3505 11.6646 22.5675 10.9967C22.7783 10.3476 22.6068 9.7602 22.2992 9.30542C22.0078 8.87464 21.5853 8.54201 21.2061 8.29927C21.0158 8.17745 20.8233 8.07005 20.6418 7.97749C20.7654 7.8193 20.8924 7.64313 21.0111 7.45482C21.2476 7.0795 21.4839 6.605 21.5583 6.09545C21.6369 5.55749 21.5338 4.95534 21.0575 4.45439C20.5666 3.93799 19.9386 3.82274 19.3865 3.88272C18.8577 3.94017 18.3463 4.15884 17.9327 4.38359C17.7195 4.49943 17.5184 4.62463 17.3374 4.74655Z"  stroke="white" stroke-width="1.5"/>
<path d="M17.0113 8.84158C17.0214 9.53735 16.4667 10.0937 15.7818 10.0937C15.097 10.0937 14.526 9.53735 14.5158 8.84158C14.5057 8.14582 15.0604 7.58947 15.7453 7.58947C16.4301 7.58947 17.0011 8.14582 17.0113 8.84158Z" stroke="white" stroke-width="1.5"/>
</svg>
