<svg width="39" height="27" viewBox="0 0 39 27" fill="none" xmlns="http://www.w3.org/2000/svg">
<path d="M11.082 8.16969C11.082 3.99959 14.5544 0.620361 18.8398 0.620361H27.7055C31.9908 0.620361 35.4632 3.99959 35.4632 8.16969V18.9545C35.4632 23.1246 31.9908 26.5038 27.7055 26.5038H18.8398C14.5544 26.5038 11.082 23.1246 11.082 18.9545V8.16969Z" fill="#5FD7FF"/>
<path d="M35.5371 12.2319C35.5371 11.477 36.4237 11.1175 36.9409 11.6568L38.2338 12.9869C38.566 13.3104 38.566 13.8497 38.2338 14.1732L36.9409 15.5033C36.4237 16.0426 35.5371 15.6471 35.5371 14.9281V12.2319Z" fill="#112E95"/>
<path d="M9.97461 2.77731C9.97461 1.59099 11.0089 0.620361 12.3018 0.620361H34.2817C35.575 0.620361 36.6093 1.59099 36.6093 2.77731C36.6093 3.96364 35.575 4.93427 34.2817 4.93427H12.3018C11.0461 4.93427 9.97461 3.96364 9.97461 2.77731Z" fill="#112E95"/>
<path d="M15.5523 9.24829H0C0 11.6209 1.99496 13.5622 4.43304 13.5622C4.43304 15.9348 6.42763 17.8761 8.86571 17.8761C8.86571 20.2487 10.8607 22.19 13.2988 22.19H19.9481V17.8761V13.5622C19.9853 11.1895 17.9904 9.24829 15.5523 9.24829Z" fill="#112E95"/>
<path d="M33.2826 11.4052C33.2826 12.5916 32.2852 13.5622 31.0663 13.5622C29.8471 13.5622 28.8496 12.5916 28.8496 11.4052C28.8496 10.2189 29.8471 9.24829 31.0663 9.24829C32.2852 9.24829 33.2826 10.2189 33.2826 11.4052Z" fill="#112E95"/>
</svg>
