<svg width="941" height="486" viewBox="0 0 941 486" fill="none" xmlns="http://www.w3.org/2000/svg">
<path d="M0.186085 481.111C-0.0288505 481.284 -0.0625457 481.599 0.110825 481.814L2.93606 485.316C3.10943 485.531 3.42421 485.565 3.63915 485.392C3.85408 485.218 3.88778 484.904 3.71441 484.689L1.20309 481.575L4.31649 479.064C4.53143 478.891 4.56512 478.576 4.39175 478.361C4.21838 478.146 3.9036 478.112 3.68866 478.286L0.186085 481.111ZM640.294 362.5L639.947 362.86L639.98 362.892L640.018 362.917L640.294 362.5ZM761.675 168.006L761.284 168.318L761.675 168.006ZM0.446783 481.997C1.29547 482.088 2.14211 482.167 2.98674 482.234L3.0663 481.238C2.23065 481.171 1.39297 481.093 0.553217 481.003L0.446783 481.997ZM8.03067 482.5C9.70414 482.543 11.3698 482.541 13.0281 482.494L12.9999 481.495C11.3595 481.541 9.71176 481.543 8.05629 481.501L8.03067 482.5ZM17.9986 482.221C19.6701 482.085 21.3341 481.904 22.991 481.68L22.857 480.689C21.2174 480.911 19.5709 481.09 17.9172 481.225L17.9986 482.221ZM27.9406 480.879C29.5836 480.57 31.2197 480.219 32.8493 479.827L32.6156 478.855C31.0018 479.243 29.382 479.591 27.7557 479.897L27.9406 480.879ZM37.6595 478.549C39.2564 478.084 40.8473 477.581 42.4326 477.04L42.1099 476.094C40.5386 476.63 38.9621 477.128 37.38 477.589L37.6595 478.549ZM47.1714 475.309C48.7092 474.709 50.2419 474.076 51.7697 473.409L51.3697 472.492C49.8537 473.154 48.3333 473.783 46.8082 474.377L47.1714 475.309ZM56.2958 471.331C57.8 470.607 59.2998 469.851 60.7954 469.065L60.3301 468.18C58.8445 468.96 57.3552 469.711 55.8619 470.43L56.2958 471.331ZM65.2066 466.653C66.6307 465.844 68.0513 465.009 69.4686 464.148L68.9494 463.293C67.5402 464.149 66.1281 464.98 64.7128 465.783L65.2066 466.653ZM73.7114 461.488C75.1226 460.576 76.5309 459.639 77.9364 458.679L77.3722 457.853C75.9735 458.809 74.5724 459.741 73.1687 460.648L73.7114 461.488ZM81.9901 455.838C83.3261 454.879 84.66 453.899 85.9919 452.899L85.3914 452.099C84.065 453.095 82.7369 454.071 81.4069 455.026L81.9901 455.838ZM89.982 449.839C91.3043 448.804 92.625 447.75 93.9441 446.678L93.3135 445.902C91.9989 446.971 90.6831 448.021 89.3657 449.051L89.982 449.839ZM97.7374 443.543C99.0007 442.482 100.263 441.404 101.524 440.311L100.869 439.556C99.6116 440.645 98.3533 441.719 97.0941 442.777L97.7374 443.543ZM105.305 436.988C106.553 435.875 107.8 434.748 109.047 433.608L108.372 432.87C107.128 434.008 105.884 435.132 104.639 436.241L105.305 436.988ZM112.667 430.257C113.873 429.128 115.079 427.987 116.285 426.834L115.594 426.111C114.39 427.262 113.187 428.401 111.983 429.527L112.667 430.257ZM119.902 423.342C121.1 422.175 122.298 420.996 123.496 419.808L122.792 419.098C121.596 420.284 120.4 421.461 119.204 422.626L119.902 423.342ZM126.988 416.317C128.152 415.144 129.317 413.963 130.482 412.773L129.768 412.073C128.604 413.261 127.441 414.441 126.279 415.612L126.988 416.317ZM133.98 409.178C135.146 407.972 136.314 406.758 137.482 405.536L136.759 404.845C135.592 406.065 134.426 407.278 133.261 408.483L133.98 409.178ZM140.888 401.957C142.024 400.758 143.161 399.552 144.3 398.341L143.571 397.656C142.433 398.866 141.297 400.071 140.162 401.269L140.888 401.957ZM147.718 394.689C148.859 393.467 150 392.239 151.144 391.007L150.411 390.327C149.268 391.558 148.127 392.785 146.987 394.007L147.718 394.689ZM154.526 387.352C155.646 386.138 156.769 384.92 157.892 383.699L157.156 383.022C156.033 384.243 154.911 385.46 153.791 386.674L154.526 387.352ZM161.269 380.025C162.396 378.797 163.525 377.566 164.656 376.332L163.918 375.657C162.788 376.89 161.659 378.121 160.532 379.349L161.269 380.025ZM168.039 372.641C169.156 371.422 170.275 370.201 171.396 368.979L170.659 368.303C169.537 369.525 168.419 370.746 167.302 371.965L168.039 372.641ZM174.765 365.308C175.89 364.083 177.017 362.857 178.147 361.63L177.412 360.953C176.281 362.18 175.154 363.406 174.028 364.631L174.765 365.308ZM181.543 357.949C182.669 356.731 183.798 355.513 184.929 354.295L184.196 353.615C183.065 354.833 181.936 356.052 180.809 357.271L181.543 357.949ZM188.323 350.65C189.457 349.435 190.594 348.222 191.734 347.009L191.005 346.325C189.865 347.538 188.727 348.752 187.592 349.967L188.323 350.65ZM195.161 343.376C196.305 342.168 197.452 340.962 198.602 339.757L197.879 339.067C196.728 340.272 195.58 341.48 194.435 342.689L195.161 343.376ZM202.053 336.16C203.206 334.963 204.363 333.769 205.522 332.578L204.806 331.881C203.645 333.073 202.487 334.268 201.333 335.466L202.053 336.16ZM209.012 329.015C210.178 327.831 211.348 326.65 212.521 325.473L211.813 324.767C210.638 325.945 209.467 327.128 208.299 328.313L209.012 329.015ZM216.056 321.95C217.239 320.779 218.425 319.613 219.615 318.451L218.917 317.736C217.725 318.899 216.537 320.067 215.353 321.239L216.056 321.95ZM223.196 314.982C224.394 313.831 225.595 312.685 226.801 311.545L226.114 310.819C224.906 311.961 223.703 313.108 222.503 314.261L223.196 314.982ZM230.435 308.138C231.656 307.003 232.881 305.875 234.111 304.753L233.437 304.014C232.205 305.138 230.977 306.269 229.754 307.406L230.435 308.138ZM237.813 301.408C239.051 300.3 240.294 299.2 241.541 298.107L240.882 297.355C239.632 298.45 238.387 299.553 237.146 300.663L237.813 301.408ZM245.298 294.852C246.563 293.767 247.833 292.691 249.107 291.624L248.465 290.857C247.188 291.927 245.915 293.006 244.647 294.092L245.298 294.852ZM252.956 288.441C254.244 287.389 255.537 286.346 256.836 285.313L256.213 284.53C254.911 285.566 253.615 286.612 252.324 287.666L252.956 288.441ZM260.746 282.243C262.058 281.227 263.376 280.222 264.699 279.227L264.098 278.427C262.771 279.425 261.45 280.434 260.134 281.453L260.746 282.243ZM268.717 276.251C270.062 275.27 271.413 274.301 272.769 273.344L272.193 272.527C270.832 273.487 269.477 274.459 268.128 275.443L268.717 276.251ZM276.856 270.508C278.225 269.575 279.599 268.654 280.979 267.746L280.43 266.911C279.045 267.822 277.666 268.746 276.293 269.682L276.856 270.508ZM285.174 265.039C286.581 264.149 287.994 263.272 289.414 262.409L288.894 261.555C287.47 262.421 286.051 263.3 284.639 264.194L285.174 265.039ZM293.692 259.864C295.125 259.03 296.564 258.211 298.01 257.407L297.524 256.533C296.072 257.34 294.627 258.163 293.189 259L293.692 259.864ZM302.383 255.033C303.852 254.255 305.328 253.493 306.812 252.746L306.363 251.853C304.873 252.602 303.39 253.368 301.915 254.15L302.383 255.033ZM311.284 250.557C312.782 249.845 314.287 249.148 315.799 248.47L315.39 247.557C313.871 248.239 312.359 248.938 310.854 249.655L311.284 250.557ZM320.359 246.486C321.886 245.843 323.421 245.218 324.963 244.611L324.597 243.68C323.047 244.29 321.505 244.918 319.971 245.565L320.359 246.486ZM329.613 242.845C331.171 242.275 332.737 241.725 334.311 241.193L333.991 240.246C332.409 240.78 330.835 241.333 329.27 241.906L329.613 242.845ZM339.056 239.657C340.632 239.169 342.216 238.701 343.808 238.253L343.537 237.29C341.937 237.741 340.344 238.212 338.76 238.702L339.056 239.657ZM348.599 236.971C350.205 236.564 351.818 236.178 353.44 235.812L353.22 234.837C351.59 235.204 349.967 235.593 348.354 236.002L348.599 236.971ZM358.331 234.779C359.953 234.459 361.584 234.161 363.223 233.883L363.056 232.897C361.408 233.176 359.769 233.477 358.137 233.798L358.331 234.779ZM368.096 233.127C369.729 232.896 371.37 232.686 373.019 232.498L372.906 231.505C371.247 231.693 369.597 231.904 367.956 232.136L368.096 233.127ZM377.993 232.001C379.66 231.857 381.335 231.735 383.019 231.637L382.961 230.638C381.268 230.738 379.583 230.86 377.907 231.004L377.993 232.001ZM387.915 231.415C389.549 231.363 391.192 231.332 392.843 231.323L392.838 230.323C391.178 230.332 389.526 230.363 387.883 230.416L387.915 231.415ZM397.822 231.362C399.49 231.397 401.166 231.454 402.851 231.534L402.898 230.536C401.205 230.455 399.519 230.398 397.843 230.362L397.822 231.362ZM407.866 231.838C409.475 231.956 411.093 232.095 412.718 232.255L412.816 231.26C411.182 231.099 409.557 230.959 407.939 230.84L407.866 231.838ZM417.617 232.798C419.259 233 420.908 233.223 422.565 233.469L422.711 232.479C421.046 232.233 419.389 232.008 417.74 231.805L417.617 232.798ZM427.561 234.269C429.201 234.553 430.849 234.857 432.505 235.183L432.698 234.201C431.035 233.874 429.379 233.568 427.731 233.284L427.561 234.269ZM437.251 236.17C438.841 236.519 440.437 236.888 442.041 237.276L442.276 236.305C440.666 235.914 439.062 235.544 437.466 235.194L437.251 236.17ZM446.875 238.502C448.493 238.931 450.119 239.38 451.753 239.85L452.029 238.889C450.389 238.417 448.756 237.966 447.131 237.536L446.875 238.502ZM456.676 241.321C458.197 241.793 459.725 242.282 461.259 242.789L461.573 241.84C460.033 241.331 458.5 240.839 456.972 240.366L456.676 241.321ZM465.873 244.362C467.418 244.905 468.969 245.465 470.527 246.044L470.876 245.107C469.312 244.526 467.755 243.963 466.205 243.419L465.873 244.362ZM475.221 247.836C476.792 248.452 478.37 249.087 479.955 249.74L480.336 248.816C478.746 248.16 477.163 247.523 475.586 246.905L475.221 247.836ZM484.638 251.717C486.098 252.348 487.563 252.994 489.034 253.656L489.444 252.745C487.969 252.08 486.499 251.432 485.035 250.799L484.638 251.717ZM493.464 255.692C494.946 256.387 496.435 257.097 497.929 257.825L498.366 256.925C496.868 256.196 495.375 255.483 493.888 254.786L493.464 255.692ZM502.428 260.056C503.934 260.816 505.445 261.592 506.963 262.386L507.426 261.499C505.905 260.704 504.389 259.925 502.879 259.163L502.428 260.056ZM511.533 264.816C512.935 265.574 514.342 266.346 515.755 267.133L516.241 266.26C514.825 265.471 513.414 264.696 512.009 263.936L511.533 264.816ZM519.968 269.514C521.377 270.322 522.791 271.144 524.211 271.98L524.718 271.118C523.296 270.28 521.878 269.456 520.465 268.646L519.968 269.514ZM528.484 274.532C529.913 275.397 531.348 276.276 532.787 277.17L533.315 276.321C531.872 275.425 530.434 274.543 529.002 273.676L528.484 274.532ZM537.121 279.896C538.571 280.819 540.026 281.757 541.486 282.71L542.032 281.872C540.569 280.918 539.111 279.978 537.658 279.052L537.121 279.896ZM545.482 285.346C546.814 286.234 548.15 287.134 549.49 288.047L550.053 287.22C548.71 286.306 547.372 285.404 546.037 284.514L545.482 285.346ZM553.523 290.821C554.872 291.758 556.225 292.708 557.582 293.67L558.16 292.854C556.8 291.89 555.445 290.939 554.094 290L553.523 290.821ZM561.667 296.594C563.033 297.582 564.403 298.582 565.778 299.594L566.371 298.789C564.994 297.775 563.621 296.773 562.253 295.784L561.667 296.594ZM569.916 302.671C571.26 303.68 572.608 304.701 573.961 305.734L574.568 304.939C573.213 303.904 571.862 302.882 570.516 301.871L569.916 302.671ZM577.754 308.654C579.022 309.639 580.294 310.633 581.569 311.639L582.188 310.854C580.911 309.847 579.638 308.85 578.367 307.864L577.754 308.654ZM585.406 314.688C586.689 315.715 587.976 316.753 589.266 317.801L589.897 317.025C588.604 315.975 587.316 314.936 586.031 313.907L585.406 314.688ZM593.147 320.98C594.445 322.051 595.746 323.132 597.051 324.225L597.693 323.458C596.386 322.364 595.083 321.281 593.784 320.209L593.147 320.98ZM600.978 327.535C602.29 328.65 603.607 329.775 604.927 330.912L605.579 330.154C604.258 329.016 602.939 327.889 601.625 326.773L600.978 327.535ZM608.587 334.083C609.789 335.132 610.995 336.19 612.205 337.258L612.867 336.508C611.656 335.44 610.448 334.38 609.244 333.33L608.587 334.083ZM615.842 340.488C617.057 341.574 618.276 342.669 619.497 343.774L620.168 343.032C618.945 341.926 617.725 340.83 616.508 339.742L615.842 340.488ZM623.172 347.116C624.4 348.24 625.632 349.373 626.866 350.515L627.545 349.781C626.309 348.638 625.077 347.503 623.847 346.379L623.172 347.116ZM630.579 353.971C631.82 355.132 633.064 356.303 634.312 357.483L634.999 356.757C633.75 355.575 632.505 354.403 631.263 353.241L630.579 353.971ZM638.064 361.053C638.691 361.653 639.318 362.256 639.947 362.86L640.64 362.14C640.011 361.534 639.383 360.931 638.755 360.331L638.064 361.053ZM640.018 362.917C640.742 363.395 641.463 363.862 642.182 364.318L642.717 363.473C642.004 363.021 641.288 362.558 640.569 362.083L640.018 362.917ZM646.471 366.914C647.9 367.738 649.319 368.517 650.729 369.252L651.191 368.365C649.794 367.637 648.387 366.865 646.971 366.048L646.471 366.914ZM655.294 371.492C656.805 372.186 658.305 372.83 659.793 373.423L660.164 372.494C658.691 371.907 657.207 371.271 655.712 370.583L655.294 371.492ZM664.53 375.155C666.118 375.683 667.693 376.153 669.254 376.568L669.511 375.601C667.97 375.192 666.414 374.728 664.845 374.206L664.53 375.155ZM674.148 377.693C675.791 378.012 677.418 378.268 679.029 378.463L679.15 377.471C677.562 377.278 675.959 377.026 674.339 376.711L674.148 377.693ZM684.035 378.878C685.701 378.952 687.349 378.96 688.978 378.904L688.944 377.904C687.341 377.959 685.719 377.952 684.079 377.879L684.035 378.878ZM693.989 378.526C695.647 378.332 697.284 378.072 698.901 377.747L698.704 376.766C697.114 377.086 695.503 377.342 693.873 377.533L693.989 378.526ZM703.755 376.561C705.354 376.101 706.931 375.577 708.485 374.992L708.133 374.056C706.603 374.632 705.052 375.148 703.479 375.6L703.755 376.561ZM713.087 373.053C714.586 372.352 716.062 371.594 717.516 370.781L717.027 369.909C715.595 370.71 714.14 371.457 712.664 372.147L713.087 373.053ZM721.793 368.189C723.17 367.288 724.526 366.337 725.859 365.339L725.259 364.538C723.943 365.525 722.605 366.463 721.245 367.352L721.793 368.189ZM729.76 362.226C731.016 361.162 732.251 360.054 733.463 358.906L732.776 358.18C731.576 359.316 730.355 360.411 729.114 361.463L729.76 362.226ZM736.988 355.389C738.125 354.196 739.241 352.966 740.336 351.701L739.58 351.047C738.495 352.3 737.39 353.518 736.264 354.7L736.988 355.389ZM743.503 347.874C744.528 346.58 745.532 345.255 746.516 343.901L745.707 343.314C744.731 344.657 743.735 345.971 742.719 347.253L743.503 347.874ZM749.354 339.833C750.273 338.461 751.172 337.063 752.052 335.641L751.202 335.115C750.328 336.527 749.435 337.914 748.523 339.276L749.354 339.833ZM754.589 331.381C755.41 329.948 756.213 328.494 756.996 327.019L756.113 326.55C755.334 328.015 754.537 329.46 753.721 330.883L754.589 331.381ZM759.256 322.605C759.987 321.124 760.699 319.625 761.392 318.111L760.483 317.694C759.794 319.2 759.086 320.69 758.36 322.162L759.256 322.605ZM763.396 313.569C764.042 312.05 764.669 310.516 765.279 308.97L764.348 308.603C763.742 310.142 763.118 311.667 762.476 313.178L763.396 313.569ZM767.04 304.325C767.606 302.774 768.154 301.211 768.683 299.639L767.736 299.32C767.209 300.884 766.664 302.439 766.101 303.982L767.04 304.325ZM770.213 294.91C770.702 293.332 771.173 291.746 771.627 290.153L770.665 289.879C770.214 291.465 769.745 293.044 769.258 294.614L770.213 294.91ZM772.93 285.357C773.346 283.756 773.743 282.149 774.122 280.538L773.148 280.309C772.771 281.913 772.376 283.512 771.962 285.106L772.93 285.357ZM775.203 275.691C775.545 274.069 775.869 272.444 776.174 270.818L775.191 270.634C774.887 272.253 774.565 273.87 774.224 275.485L775.203 275.691ZM777.032 265.935C777.301 264.295 777.55 262.654 777.78 261.015L776.79 260.876C776.561 262.508 776.312 264.141 776.045 265.773L777.032 265.935ZM778.413 256.101C778.606 254.447 778.779 252.795 778.932 251.148L777.936 251.055C777.784 252.695 777.612 254.338 777.419 255.985L778.413 256.101ZM779.33 246.21C779.444 244.546 779.537 242.888 779.609 241.236L778.61 241.193C778.539 242.836 778.446 244.486 778.333 246.141L779.33 246.21ZM779.761 236.284C779.79 234.614 779.797 232.953 779.782 231.302L778.782 231.311C778.797 232.953 778.79 234.605 778.761 236.266L779.761 236.284ZM779.668 226.349C779.605 224.676 779.519 223.016 779.408 221.37L778.411 221.437C778.52 223.073 778.606 224.723 778.668 226.386L779.668 226.349ZM779 216.435C778.835 214.764 778.645 213.111 778.427 211.476L777.436 211.608C777.652 213.231 777.841 214.874 778.005 216.533L779 216.435ZM777.69 206.588C777.408 204.925 777.097 203.285 776.757 201.67L775.778 201.876C776.115 203.478 776.424 205.105 776.704 206.755L777.69 206.588ZM775.641 196.867C775.222 195.225 774.771 193.612 774.287 192.031L773.331 192.324C773.81 193.889 774.257 195.486 774.672 197.114L775.641 196.867ZM772.714 187.328C772.138 185.743 771.524 184.196 770.874 182.689L769.956 183.085C770.598 184.573 771.204 186.102 771.775 187.67L772.714 187.328ZM768.75 178.168C767.988 176.678 767.186 175.236 766.341 173.845L765.487 174.364C766.317 175.733 767.108 177.154 767.86 178.623L768.75 178.168ZM763.56 169.656C763.073 168.987 762.575 168.333 762.066 167.695L761.284 168.318C761.784 168.945 762.273 169.587 762.751 170.244L763.56 169.656ZM762.066 167.695C761.541 167.036 761.016 166.385 760.493 165.742L759.717 166.373C760.239 167.014 760.761 167.662 761.284 168.318L762.066 167.695ZM757.362 161.967C756.289 160.7 755.22 159.464 754.155 158.258L753.406 158.92C754.466 160.121 755.53 161.352 756.598 162.613L757.362 161.967ZM750.872 154.624C749.74 153.399 748.613 152.208 747.49 151.051L746.772 151.748C747.889 152.899 749.011 154.084 750.138 155.303L750.872 154.624ZM744.054 147.6C742.854 146.424 741.659 145.288 740.47 144.189L739.791 144.923C740.973 146.015 742.161 147.146 743.355 148.314L744.054 147.6ZM736.847 140.939C735.58 139.838 734.321 138.779 733.069 137.762L732.439 138.538C733.682 139.548 734.932 140.6 736.191 141.694L736.847 140.939ZM729.195 134.729C727.869 133.73 726.552 132.778 725.245 131.872L724.675 132.694C725.972 133.592 727.278 134.537 728.594 135.528L729.195 134.729ZM721.131 129.15C719.706 128.253 718.294 127.411 716.895 126.622L716.403 127.493C717.789 128.274 719.187 129.108 720.598 129.997L721.131 129.15ZM712.552 124.322C711.05 123.578 709.563 122.896 708.093 122.273L707.703 123.194C709.154 123.808 710.623 124.482 712.108 125.218L712.552 124.322ZM703.512 120.505C701.922 119.952 700.352 119.469 698.805 119.055L698.546 120.021C700.069 120.429 701.616 120.904 703.184 121.45L703.512 120.505ZM693.989 117.968C692.33 117.665 690.7 117.441 689.1 117.294L689.008 118.29C690.578 118.434 692.179 118.654 693.809 118.952L693.989 117.968ZM684.164 117.077C682.478 117.086 680.829 117.182 679.22 117.36L679.33 118.354C680.904 118.18 682.517 118.086 684.169 118.077L684.164 117.077ZM674.336 118.174C672.701 118.542 671.114 118.998 669.578 119.536L669.908 120.48C671.408 119.955 672.958 119.509 674.555 119.15L674.336 118.174ZM665.012 121.442C663.518 122.172 662.081 122.984 660.705 123.872L661.246 124.712C662.59 123.846 663.993 123.053 665.451 122.34L665.012 121.442ZM656.706 126.793C655.429 127.845 654.217 128.968 653.073 130.153L653.792 130.847C654.91 129.689 656.095 128.593 657.342 127.565L656.706 126.793ZM649.838 133.896C648.831 135.2 647.894 136.56 647.029 137.966L647.881 138.49C648.727 137.113 649.644 135.783 650.63 134.507L649.838 133.896ZM644.664 142.307C643.952 143.79 643.315 145.312 642.754 146.867L643.695 147.206C644.244 145.683 644.868 144.192 645.565 142.74L644.664 142.307ZM641.311 151.595C640.909 153.188 640.586 154.806 640.342 156.441L641.331 156.588C641.57 154.986 641.887 153.401 642.28 151.839L641.311 151.595ZM639.855 161.358C639.814 162.18 639.794 163.005 639.794 163.831H640.794C640.794 163.021 640.814 162.213 640.854 161.407L639.855 161.358ZM639.794 163.831C639.794 164.695 639.816 165.553 639.861 166.405L640.859 166.353C640.816 165.518 640.794 164.678 640.794 163.831H639.794ZM640.389 171.44C640.657 173.126 641.013 174.785 641.456 176.415L642.421 176.153C641.988 174.558 641.639 172.934 641.377 171.283L640.389 171.44ZM643.042 181.23C643.655 182.807 644.352 184.352 645.128 185.863L646.018 185.406C645.257 183.925 644.575 182.411 643.974 180.868L643.042 181.23ZM647.663 190.246C648.577 191.663 649.565 193.046 650.624 194.393L651.41 193.775C650.37 192.452 649.4 191.094 648.503 189.704L647.663 190.246ZM653.911 198.221C655.054 199.443 656.259 200.631 657.523 201.782L658.197 201.043C656.952 199.909 655.766 198.74 654.642 197.538L653.911 198.221ZM661.398 205.055C662.706 206.081 664.065 207.072 665.473 208.029L666.035 207.202C664.646 206.258 663.305 205.279 662.015 204.268L661.398 205.055ZM669.778 210.757C671.202 211.597 672.667 212.406 674.172 213.18L674.63 212.291C673.142 211.525 671.693 210.726 670.286 209.896L669.778 210.757ZM678.78 215.39C680.285 216.062 681.825 216.703 683.397 217.311L683.758 216.378C682.201 215.776 680.677 215.142 679.188 214.477L678.78 215.39ZM688.202 219.035C689.768 219.555 691.362 220.044 692.983 220.502L693.255 219.539C691.648 219.086 690.069 218.601 688.517 218.086L688.202 219.035ZM697.924 221.78C699.53 222.159 701.16 222.508 702.812 222.826L703.001 221.844C701.363 221.528 699.746 221.182 698.153 220.807L697.924 221.78ZM707.826 223.689C709.464 223.937 711.121 224.156 712.796 224.346L712.909 223.352C711.246 223.164 709.601 222.946 707.976 222.7L707.826 223.689ZM717.841 224.822C719.501 224.948 721.178 225.045 722.87 225.113L722.91 224.114C721.23 224.047 719.565 223.95 717.916 223.825L717.841 224.822ZM727.911 225.228C729.587 225.238 731.277 225.219 732.979 225.171L732.951 224.171C731.26 224.219 729.582 224.238 727.916 224.228L727.911 225.228ZM737.99 224.948C739.671 224.845 741.363 224.715 743.064 224.556L742.971 223.56C741.28 223.718 739.599 223.848 737.929 223.949L737.99 224.948ZM748.039 224.012C749.7 223.804 751.369 223.569 753.045 223.307L752.89 222.319C751.224 222.58 749.566 222.813 747.915 223.02L748.039 224.012ZM758.026 222.449C759.66 222.142 761.3 221.809 762.945 221.449L762.731 220.472C761.096 220.83 759.465 221.161 757.841 221.466L758.026 222.449ZM767.895 220.288C769.505 219.886 771.119 219.458 772.736 219.003L772.466 218.041C770.858 218.492 769.253 218.918 767.653 219.318L767.895 220.288ZM777.573 217.57C779.178 217.069 780.786 216.543 782.396 215.99L782.071 215.044C780.47 215.594 778.871 216.118 777.275 216.615L777.573 217.57ZM787.104 214.301C788.674 213.712 790.246 213.099 791.819 212.46L791.443 211.533C789.879 212.169 788.315 212.779 786.753 213.364L787.104 214.301ZM796.469 210.496C797.991 209.829 799.513 209.138 801.035 208.422L800.609 207.517C799.096 208.229 797.582 208.917 796.068 209.581L796.469 210.496ZM805.597 206.201C807.085 205.451 808.573 204.678 810.058 203.881L809.585 203C808.107 203.793 806.628 204.562 805.147 205.308L805.597 206.201ZM814.451 201.45C815.914 200.616 817.374 199.758 818.832 198.876L818.314 198.021C816.864 198.898 815.411 199.752 813.956 200.581L814.451 201.45ZM823.093 196.225C824.495 195.328 825.893 194.409 827.289 193.467L826.729 192.638C825.341 193.576 823.949 194.491 822.554 195.383L823.093 196.225ZM831.465 190.572C832.82 189.607 834.172 188.62 835.52 187.61L834.921 186.81C833.579 187.814 832.234 188.797 830.885 189.757L831.465 190.572ZM839.497 184.557C840.819 183.517 842.137 182.456 843.449 181.372L842.812 180.601C841.506 181.68 840.195 182.736 838.879 183.771L839.497 184.557ZM847.299 178.118C848.551 177.034 849.799 175.929 851.042 174.803L850.371 174.062C849.133 175.183 847.891 176.283 846.644 177.362L847.299 178.118ZM854.754 171.363C855.976 170.205 857.193 169.026 858.403 167.826L857.7 167.116C856.494 168.311 855.283 169.484 854.067 170.637L854.754 171.363ZM861.901 164.285C863.061 163.085 864.215 161.865 865.364 160.625L864.63 159.945C863.487 161.18 862.337 162.395 861.182 163.59L861.901 164.285ZM868.791 156.845C869.889 155.608 870.981 154.352 872.066 153.077L871.305 152.428C870.224 153.698 869.136 154.949 868.043 156.181L868.791 156.845ZM875.274 149.232C876.337 147.932 877.393 146.613 878.443 145.274L877.656 144.657C876.61 145.99 875.558 147.304 874.5 148.599L875.274 149.232ZM881.542 141.242C882.532 139.928 883.515 138.597 884.492 137.248L883.682 136.662C882.709 138.006 881.73 139.332 880.744 140.641L881.542 141.242ZM887.402 133.148C888.366 131.764 889.322 130.362 890.271 128.943L889.44 128.387C888.494 129.801 887.541 131.198 886.581 132.577L887.402 133.148ZM893.036 124.726C893.927 123.339 894.812 121.937 895.69 120.518L894.839 119.992C893.964 121.406 893.083 122.804 892.195 124.185L893.036 124.726ZM898.302 116.211C899.166 114.759 900.022 113.29 900.872 111.804L900.004 111.308C899.157 112.789 898.303 114.252 897.442 115.7L898.302 116.211ZM903.331 107.419C904.125 105.975 904.913 104.516 905.693 103.042L904.809 102.574C904.031 104.044 903.246 105.498 902.455 106.937L903.331 107.419ZM908.013 98.5738C908.779 97.0689 909.538 95.5487 910.289 94.013L909.391 93.5734C908.642 95.1044 907.885 96.6199 907.121 98.1201L908.013 98.5738ZM912.476 89.4574C913.175 87.9706 913.868 86.4697 914.554 84.9547L913.643 84.5422C912.959 86.0528 912.269 87.5492 911.571 89.0316L912.476 89.4574ZM916.591 80.3672C917.263 78.8239 917.928 77.2663 918.586 75.6944L917.663 75.3084C917.008 76.8759 916.345 78.4291 915.674 79.968L916.591 80.3672ZM920.53 70.9513C921.14 69.4343 921.743 67.9043 922.339 66.3613L921.406 66.001C920.811 67.5399 920.21 69.0657 919.602 70.5786L920.53 70.9513ZM924.106 61.6932C924.688 60.1241 925.264 58.542 925.832 56.9466L924.89 56.6111C924.323 58.2023 923.749 59.7803 923.168 61.3453L924.106 61.6932ZM927.515 52.1211C928.055 50.5404 928.589 48.9471 929.115 47.3412L928.164 47.0298C927.64 48.6318 927.108 50.2211 926.569 51.7978L927.515 52.1211ZM930.628 42.6265C931.126 41.0429 931.617 39.4474 932.101 37.8398L931.144 37.5513C930.661 39.1551 930.171 40.7469 929.674 42.3266L930.628 42.6265ZM933.534 32.9809C934.005 31.3491 934.468 29.7053 934.925 28.0493L933.961 27.7834C933.505 29.4357 933.043 31.0758 932.573 32.7038L933.534 32.9809ZM936.229 23.2162C936.648 21.6279 937.06 20.0287 937.466 18.4184L936.497 18.1739C936.092 19.7806 935.68 21.3763 935.262 22.9611L936.229 23.2162ZM938.665 13.5547C939.058 11.9224 939.445 10.2791 939.825 8.62465L938.85 8.40086C938.471 10.0519 938.085 11.6917 937.693 13.3206L938.665 13.5547ZM940.944 3.62804C941.128 2.78955 941.309 1.94828 941.489 1.10421L940.511 0.895793C940.331 1.73817 940.15 2.57774 939.967 3.41452L940.944 3.62804Z" fill="#18191D" fill-opacity="0.4"/>
</svg>
